<?xml version="1.0" encoding="UTF-8"?>
<svg xmlns="http://www.w3.org/2000/svg" viewBox="0 0 1000 500" width="1000" height="500">
  <!-- World Map - Simplified Accurate Continents -->
  <!-- Based on Natural Earth data, simplified for web use -->
  
  <defs>
    <style>
      .land { fill: #f1f5f9; stroke: #e2e8f0; stroke-width: 0.5; }
      .ocean { fill: #f8fafc; }
      .country { fill: #f1f5f9; stroke: #e2e8f0; stroke-width: 0.3; }
      .country:hover { fill: #e2e8f0; }
    </style>
  </defs>
  
  <!-- Ocean background -->
  <rect class="ocean" width="1000" height="500"/>
  
  <!-- North America -->
  <g id="north-america">
    <!-- United States -->
    <path class="country" d="M158 145 Q200 130 250 140 L320 135 Q380 130 420 140 L450 145 Q480 150 510 160 L530 170 Q540 180 545 190 L550 200 Q555 210 560 220 L565 230 Q570 240 575 250 L580 260 Q575 270 570 280 L560 290 Q550 300 540 310 L530 320 Q520 330 510 340 L500 350 Q490 360 480 370 L470 380 Q460 390 450 400 L440 410 Q430 420 420 430 L410 440 Q400 450 390 460 L380 470 Q360 475 340 470 L320 465 Q300 460 280 455 L260 450 Q240 445 220 440 L200 435 Q180 430 165 420 L155 410 Q150 400 148 390 L146 380 Q144 370 143 360 L142 350 Q141 340 140 330 L139 320 Q138 310 137 300 L136 290 Q135 280 134 270 L133 260 Q132 250 131 240 L130 230 Q131 220 132 210 L134 200 Q136 190 138 180 L140 170 Q142 160 145 150 L148 145 Z"/>
    
    <!-- Canada -->
    <path class="country" d="M160 80 Q220 70 280 75 L340 80 Q400 85 460 90 L520 95 Q580 100 640 105 L700 110 Q720 115 730 125 L735 135 Q740 145 735 155 L730 165 Q725 175 720 185 L715 195 Q710 205 705 215 L700 225 Q695 235 690 245 L685 255 Q680 265 675 275 L670 285 Q665 295 660 305 L650 315 Q640 325 630 335 L620 345 Q610 355 600 365 L590 375 Q580 385 570 395 L560 405 Q550 415 540 425 L530 435 Q520 445 510 455 L500 465 Q490 475 480 485 L470 495 Q450 500 430 495 L410 490 Q390 485 370 480 L350 475 Q330 470 310 465 L290 460 Q270 455 250 450 L230 445 Q210 440 190 435 L170 430 Q150 425 135 415 L125 405 Q120 395 118 385 L116 375 Q114 365 113 355 L112 345 Q111 335 110 325 L109 315 Q108 305 107 295 L106 285 Q105 275 104 265 L103 255 Q102 245 101 235 L100 225 Q101 215 102 205 L104 195 Q106 185 108 175 L110 165 Q112 155 115 145 L118 135 Q121 125 125 115 L130 105 Q135 95 142 87 L150 82 Q155 80 160 80 Z"/>
    
    <!-- Mexico -->
    <path class="country" d="M158 245 Q180 240 200 245 L220 250 Q240 255 260 260 L280 265 Q300 270 320 275 L340 280 Q360 285 380 290 L400 295 Q420 300 440 305 L460 310 Q480 315 500 320 L520 325 Q540 330 560 335 L580 340 Q600 345 620 350 L635 355 Q645 360 650 370 L652 380 Q654 390 652 400 L650 410 Q648 420 645 430 L640 440 Q635 450 630 460 L625 470 Q620 480 615 490 L610 500 Q590 505 570 500 L550 495 Q530 490 510 485 L490 480 Q470 475 450 470 L430 465 Q410 460 390 455 L370 450 Q350 445 330 440 L310 435 Q290 430 270 425 L250 420 Q230 415 210 410 L190 405 Q170 400 158 390 L150 380 Q148 370 150 360 L152 350 Q154 340 156 330 L158 320 Q160 310 162 300 L164 290 Q166 280 168 270 L170 260 Q168 255 164 252 L160 248 Q159 246 158 245 Z"/>
  </g>
  
  <!-- South America -->
  <g id="south-america">
    <path class="country" d="M280 320 Q300 315 320 320 L340 325 Q360 330 380 335 L400 340 Q420 345 440 350 L460 355 Q480 360 500 365 L520 370 Q530 375 535 385 L540 395 Q545 405 550 415 L555 425 Q560 435 565 445 L570 455 Q575 465 580 475 L585 485 Q590 495 585 505 L580 515 Q575 525 570 535 L565 545 Q560 555 555 565 L550 575 Q545 585 540 595 L535 605 Q530 615 525 625 L520 635 Q515 645 510 655 L505 665 Q500 675 495 685 L490 695 Q485 705 480 715 L475 725 Q470 735 465 745 L460 755 Q455 765 450 775 L445 785 Q440 795 435 805 L430 815 Q425 825 420 835 L415 845 Q410 855 405 865 L400 875 Q395 885 390 895 L385 905 Q380 915 375 925 L370 935 Q365 945 360 955 L355 965 Q350 975 345 985 L340 995 Q320 500 300 495 L280 490 Q260 485 245 475 L235 465 Q230 455 228 445 L226 435 Q224 425 223 415 L222 405 Q221 395 220 385 L219 375 Q218 365 217 355 L216 345 Q215 335 216 325 L218 320 Q220 318 225 318 L235 319 Q250 320 265 320 L280 320 Z"/>
  </g>
  
  <!-- Europe -->
  <g id="europe">
    <!-- Western Europe -->
    <path class="country" d="M480 120 Q500 115 520 120 L540 125 Q560 130 575 140 L585 150 Q590 160 592 170 L594 180 Q596 190 594 200 L592 210 Q590 220 585 230 L580 240 Q575 250 570 260 L565 270 Q560 280 555 290 L550 300 Q545 310 540 320 L535 330 Q530 340 525 350 L520 360 Q515 370 510 380 L505 390 Q500 400 495 410 L490 420 Q470 425 450 420 L430 415 Q410 410 395 400 L385 390 Q380 380 378 370 L376 360 Q374 350 373 340 L372 330 Q371 320 370 310 L369 300 Q368 290 367 280 L366 270 Q365 260 364 250 L363 240 Q362 230 361 220 L360 210 Q361 200 362 190 L364 180 Q366 170 368 160 L370 150 Q372 140 375 130 L378 125 Q382 122 387 121 L395 120 Q410 119 425 119 L440 119 Q455 119 470 120 L480 120 Z"/>
    
    <!-- Eastern Europe -->
    <path class="country" d="M595 115 Q615 110 635 115 L655 120 Q675 125 690 135 L700 145 Q705 155 707 165 L709 175 Q711 185 709 195 L707 205 Q705 215 700 225 L695 235 Q690 245 685 255 L680 265 Q675 275 670 285 L665 295 Q660 305 655 315 L650 325 Q645 335 640 345 L635 355 Q630 365 625 375 L620 385 Q615 395 610 405 L605 415 Q600 425 595 435 L590 445 Q570 450 550 445 L530 440 Q510 435 495 425 L485 415 Q480 405 478 395 L476 385 Q474 375 473 365 L472 355 Q471 345 470 335 L469 325 Q468 315 467 305 L466 295 Q465 285 464 275 L463 265 Q462 255 461 245 L460 235 Q461 225 462 215 L464 205 Q466 195 468 185 L470 175 Q472 165 475 155 L478 145 Q481 135 485 125 L490 120 Q495 117 502 116 L512 115 Q527 114 542 114 L557 114 Q572 114 587 115 L595 115 Z"/>
  </g>
  
  <!-- Africa -->
  <g id="africa">
    <path class="country" d="M480 220 Q500 215 520 220 L540 225 Q560 230 580 235 L600 240 Q620 245 635 255 L645 265 Q650 275 652 285 L654 295 Q656 305 654 315 L652 325 Q650 335 645 345 L640 355 Q635 365 630 375 L625 385 Q620 395 615 405 L610 415 Q605 425 600 435 L595 445 Q590 455 585 465 L580 475 Q575 485 570 495 L565 505 Q560 515 555 525 L550 535 Q545 545 540 555 L535 565 Q530 575 525 585 L520 595 Q515 605 510 615 L505 625 Q500 635 495 645 L490 655 Q485 665 480 675 L475 685 Q470 695 465 705 L460 715 Q455 725 450 735 L445 745 Q440 755 435 765 L430 775 Q425 785 420 795 L415 805 Q410 815 405 825 L400 835 Q395 845 390 855 L385 865 Q380 875 375 885 L370 895 Q365 905 360 915 L355 925 Q350 935 345 945 L340 955 Q335 965 330 975 L325 985 Q305 990 285 985 L265 980 Q245 975 230 965 L220 955 Q215 945 213 935 L211 925 Q209 915 208 905 L207 895 Q206 885 205 875 L204 865 Q203 855 202 845 L201 835 Q200 825 199 815 L198 805 Q197 795 196 785 L195 775 Q194 765 193 755 L192 745 Q191 735 190 725 L189 715 Q188 705 187 695 L186 685 Q185 675 184 665 L183 655 Q182 645 181 635 L180 625 Q181 615 182 605 L184 595 Q186 585 188 575 L190 565 Q192 555 195 545 L198 535 Q201 525 205 515 L210 505 Q215 495 221 486 L228 478 Q236 471 245 465 L255 460 Q266 456 278 453 L291 451 Q305 450 320 450 L335 451 Q350 452 365 454 L380 457 Q395 460 410 464 L425 469 Q440 475 454 482 L467 490 Q479 499 490 509 L500 520 Q505 530 507 540 L509 550 Q511 560 509 570 L507 580 Q505 590 500 600 L495 610 Q490 620 485 630 L480 640 Q475 650 470 660 L465 670 Q460 680 455 690 L450 700 Q445 710 440 720 L435 730 Q430 740 425 750 L420 760 Q415 770 410 780 L405 790 Q400 800 395 810 L390 820 Q385 830 380 840 L375 850 Q370 860 365 870 L360 880 Q355 890 350 900 L345 910 Q340 920 335 930 L330 940 Q325 950 320 960 L315 970 Q310 980 305 990 L300 500 Q285 495 270 490 L255 485 Q240 480 230 470 L225 460 Q223 450 225 440 L227 430 Q229 420 232 410 L236 400 Q240 390 245 380 L250 370 Q255 360 261 351 L268 343 Q276 336 285 330 L295 325 Q306 321 318 318 L331 316 Q345 315 360 315 L375 316 Q390 317 405 319 L420 322 Q435 326 449 331 L462 337 Q474 344 485 352 L495 361 Q504 371 512 382 L519 394 Q525 407 530 420 L534 434 Q537 448 539 462 L540 477 Q540 492 539 507 L537 522 Q534 537 530 551 L525 565 Q519 578 512 590 L504 601 Q495 611 485 620 L474 628 Q462 635 449 641 L435 646 Q420 650 405 653 L390 655 Q375 656 360 656 L345 655 Q331 653 318 650 L306 646 Q295 641 285 635 L276 628 Q268 620 261 611 L255 601 Q250 590 246 578 L243 565 Q241 551 240 537 L240 522 Q241 507 243 492 L246 477 Q250 462 255 448 L261 434 Q268 420 276 407 L285 394 Q295 382 306 371 L318 361 Q331 352 345 344 L360 337 Q375 331 390 326 L405 322 Q420 319 435 317 L450 316 Q465 316 480 317 L480 220 Z"/>
  </g>
  
  <!-- Asia -->
  <g id="asia">
    <!-- Russia -->
    <path class="country" d="M710 110 Q730 105 750 110 L770 115 Q790 120 810 125 L830 130 Q850 135 870 140 L890 145 Q910 150 930 155 L950 160 Q970 165 985 175 L995 185 Q1000 195 998 205 L996 215 Q994 225 990 235 L985 245 Q980 255 975 265 L970 275 Q965 285 960 295 L955 305 Q950 315 945 325 L940 335 Q935 345 930 355 L925 365 Q920 375 915 385 L910 395 Q905 405 900 415 L895 425 Q890 435 885 445 L880 455 Q875 465 870 475 L865 485 Q860 495 855 505 L850 515 Q845 525 840 535 L835 545 Q830 555 825 565 L820 575 Q815 585 810 595 L805 605 Q800 615 795 625 L790 635 Q785 645 780 655 L775 665 Q770 675 765 685 L760 695 Q755 705 750 715 L745 725 Q740 735 735 745 L730 755 Q725 765 720 775 L715 785 Q710 795 705 805 L700 815 Q680 820 660 815 L640 810 Q620 805 605 795 L595 785 Q590 775 588 765 L586 755 Q584 745 583 735 L582 725 Q581 715 580 705 L579 695 Q578 685 577 675 L576 665 Q575 655 574 645 L573 635 Q572 625 571 615 L570 605 Q571 595 572 585 L574 575 Q576 565 578 555 L580 545 Q582 535 585 525 L588 515 Q591 505 595 495 L600 485 Q605 475 611 466 L618 458 Q626 451 635 445 L645 440 Q656 436 668 433 L681 431 Q695 430 710 430 L725 431 Q740 432 755 434 L770 437 Q785 441 799 446 L812 452 Q824 459 835 467 L845 476 Q854 486 862 497 L869 509 Q875 522 880 535 L884 549 Q887 563 889 577 L890 592 Q890 607 889 622 L887 637 Q884 651 880 665 L875 678 Q869 690 862 701 L854 711 Q845 720 835 728 L824 735 Q812 741 799 746 L785 750 Q770 753 755 755 L740 756 Q725 756 710 755 L695 753 Q681 750 668 746 L656 741 Q645 735 635 728 L626 720 Q618 711 611 701 L605 690 Q600 678 596 665 L593 651 Q591 637 590 622 L590 607 Q591 592 593 577 L596 563 Q600 549 605 535 L611 522 Q618 509 626 497 L635 486 Q645 476 656 467 L668 459 Q681 452 695 446 L710 441 Q725 437 740 434 L755 432 Q770 431 785 431 L800 432 Q815 434 830 437 L845 441 Q860 446 874 452 L887 459 Q899 467 910 476 L920 486 Q929 497 937 509 L944 522 Q950 535 955 549 L959 563 Q962 577 964 592 L965 607 Q965 622 964 637 L962 651 Q959 665 955 678 L950 690 Q944 701 937 711 L929 720 Q920 728 910 735 L899 741 Q887 746 874 750 L860 753 Q845 755 830 756 L815 756 Q800 755 785 753 L770 750 Q755 746 740 741 L725 735 Q710 728 696 720 L683 711 Q671 701 660 690 L650 678 Q641 665 633 651 L626 637 Q620 622 615 607 L611 592 Q608 577 606 563 L605 549 Q605 535 606 522 L608 509 Q611 497 615 486 L620 476 Q626 467 633 459 L641 452 Q650 446 660 441 L671 437 Q683 434 696 432 L710 431 Q710 270 710 255 L710 240 Q710 225 710 210 L710 195 Q710 180 710 165 L710 150 Q710 135 710 120 L710 110 Z"/>
    
    <!-- China -->
    <path class="country" d="M720 180 Q740 175 760 180 L780 185 Q800 190 820 195 L840 200 Q860 205 875 215 L885 225 Q890 235 892 245 L894 255 Q896 265 894 275 L892 285 Q890 295 885 305 L880 315 Q875 325 870 335 L865 345 Q860 355 855 365 L850 375 Q845 385 840 395 L835 405 Q830 415 825 425 L820 435 Q815 445 810 455 L805 465 Q800 475 795 485 L790 495 Q785 505 780 515 L775 525 Q770 535 765 545 L760 555 Q755 565 750 575 L745 585 Q740 595 735 605 L730 615 Q710 620 690 615 L670 610 Q650 605 635 595 L625 585 Q620 575 618 565 L616 555 Q614 545 613 535 L612 525 Q611 515 610 505 L609 495 Q608 485 607 475 L606 465 Q605 455 604 445 L603 435 Q602 425 601 415 L600 405 Q601 395 602 385 L604 375 Q606 365 608 355 L610 345 Q612 335 615 325 L618 315 Q621 305 625 295 L630 285 Q635 275 641 266 L648 258 Q656 251 665 245 L675 240 Q686 236 698 233 L711 231 Q725 230 740 230 L755 231 Q770 232 785 234 L800 237 Q815 241 829 246 L842 252 Q854 259 865 267 L875 276 Q884 286 892 297 L899 309 Q905 322 910 335 L914 349 Q917 363 919 377 L920 392 Q920 407 919 422 L917 437 Q914 451 910 465 L905 478 Q899 490 892 501 L884 511 Q875 520 865 528 L854 535 Q842 541 829 546 L815 550 Q800 553 785 555 L770 556 Q755 556 740 555 L725 553 Q711 550 698 546 L686 541 Q675 535 665 528 L656 520 Q648 511 641 501 L635 490 Q630 478 626 465 L623 451 Q621 437 620 422 L620 407 Q621 392 623 377 L626 363 Q630 349 635 335 L641 322 Q648 309 656 297 L665 286 Q675 276 686 267 L698 259 Q711 252 725 246 L740 241 Q755 237 770 234 L785 232 Q800 231 815 231 L830 232 Q845 234 860 237 L875 241 Q890 246 904 252 L917 259 Q929 267 940 276 L950 286 Q959 297 967 309 L974 322 Q980 335 985 349 L989 363 Q992 377 994 392 L995 407 Q995 422 994 437 L992 451 Q989 465 985 478 L980 490 Q974 501 967 511 L959 520 Q950 528 940 535 L929 541 Q917 546 904 550 L890 553 Q875 555 860 556 L845 556 Q830 555 815 553 L800 550 Q785 546 770 541 L755 535 Q740 528 726 520 L713 511 Q701 501 690 490 L680 478 Q671 465 663 451 L656 437 Q650 422 645 407 L641 392 Q638 377 636 363 L635 349 Q635 335 636 322 L638 309 Q641 297 645 286 L650 276 Q656 267 663 259 L671 252 Q680 246 690 241 L701 237 Q713 234 726 232 L740 231 Q720 205 720 190 L720 180 Z"/>
    
    <!-- India -->
    <path class="country" d="M700 260 Q720 255 740 260 L760 265 Q780 270 795 280 L805 290 Q810 300 812 310 L814 320 Q816 330 814 340 L812 350 Q810 360 805 370 L800 380 Q795 390 790 400 L785 410 Q780 420 775 430 L770 440 Q765 450 760 460 L755 470 Q750 480 745 490 L740 500 Q720 505 700 500 L680 495 Q660 490 645 480 L635 470 Q630 460 628 450 L626 440 Q624 430 623 420 L622 410 Q621 400 620 390 L619 380 Q618 370 617 360 L616 350 Q615 340 616 330 L618 320 Q620 310 623 300 L627 291 Q632 283 638 276 L645 270 Q653 265 662 261 L672 258 Q683 256 695 255 L700 260 Z"/>
  </g>
  
  <!-- Australia -->
  <g id="australia">
    <path class="country" d="M800 350 Q820 345 840 350 L860 355 Q880 360 895 370 L905 380 Q910 390 912 400 L914 410 Q916 420 914 430 L912 440 Q910 450 905 460 L900 470 Q895 480 890 490 L885 500 Q880 510 875 520 L870 530 Q865 540 860 550 L855 560 Q850 570 845 580 L840 590 Q820 595 800 590 L780 585 Q760 580 745 570 L735 560 Q730 550 728 540 L726 530 Q724 520 723 510 L722 500 Q721 490 720 480 L719 470 Q718 460 717 450 L716 440 Q715 430 716 420 L718 410 Q720 400 723 390 L727 381 Q732 373 738 366 L745 360 Q753 355 762 351 L772 348 Q783 346 795 345 L800 350 Z"/>
  </g>
  
  <!-- Antarctica (simplified) -->
  <g id="antarctica">
    <path class="country" d="M100 450 Q200 445 300 450 L400 455 Q500 460 600 455 L700 450 Q800 445 900 450 L950 455 Q975 460 990 470 L995 480 Q1000 490 995 500 L100 500 Q50 495 25 485 L10 475 Q5 465 10 455 L25 450 Q50 447 75 447 L100 450 Z"/>
  </g>
</svg>